<svg width="24" height="24" viewBox="0 0 24 24" fill="none" xmlns="http://www.w3.org/2000/svg">
<path fill-rule="evenodd" clip-rule="evenodd" d="M11.9999 2C11.1595 2 10.3502 2.20233 9.71764 2.58185C9.105 2.94943 8.4999 3.59653 8.4999 4.5C8.4999 5.40347 9.105 6.05057 9.71764 6.41815C10.3502 6.79767 11.1595 7 11.9999 7C12.8403 7 13.6496 6.79767 14.2822 6.41815C14.8948 6.05057 15.4999 5.40347 15.4999 4.5C15.4999 3.59653 14.8948 2.94943 14.2822 2.58185C13.6496 2.20233 12.8403 2 11.9999 2ZM11.9999 17C11.1595 17 10.3502 17.2023 9.71764 17.5818C9.105 17.9494 8.4999 18.5965 8.4999 19.5C8.4999 20.4035 9.105 21.0506 9.71764 21.4182C10.3502 21.7977 11.1595 22 11.9999 22C12.8403 22 13.6496 21.7977 14.2822 21.4182C14.8948 21.0506 15.4999 20.4035 15.4999 19.5C15.4999 18.5965 14.8948 17.9494 14.2822 17.5818C13.6496 17.2023 12.8403 17 11.9999 17ZM3.33962 7.00004C2.9194 7.72788 2.68998 8.52991 2.70238 9.26746C2.7144 9.9818 2.97225 10.8294 3.75468 11.2811C4.53711 11.7329 5.40007 11.5324 6.02472 11.1856C6.66967 10.8276 7.24953 10.2279 7.66975 9.50004C8.08997 8.7722 8.31939 7.97017 8.30698 7.23262C8.29497 6.51827 8.03711 5.67069 7.25468 5.21895C6.47225 4.76721 5.60929 4.9677 4.98465 5.31446C4.3397 5.6725 3.75984 6.2722 3.33962 7.00004ZM16.33 14.5C15.9098 15.2279 15.6804 16.0299 15.6928 16.7675C15.7048 17.4818 15.9626 18.3294 16.7451 18.7811C17.5275 19.2329 18.3905 19.0324 19.0151 18.6856C19.66 18.3276 20.2399 17.7279 20.6601 17C21.0803 16.2722 21.3098 15.4702 21.2974 14.7326C21.2853 14.0183 21.0275 13.1707 20.2451 12.7189C19.4626 12.2672 18.5997 12.4677 17.975 12.8145C17.3301 13.1725 16.7502 13.7722 16.33 14.5ZM4.98465 18.6856C4.3397 18.3276 3.75984 17.7279 3.33962 17C2.9194 16.2722 2.68998 15.4702 2.70238 14.7326C2.7144 14.0183 2.97225 13.1707 3.75468 12.719C4.53711 12.2672 5.40007 12.4677 6.02472 12.8145C6.66966 13.1725 7.24953 13.7722 7.66975 14.5C8.08997 15.2279 8.31939 16.0299 8.30698 16.7675C8.29497 17.4818 8.03711 18.3294 7.25468 18.7811C6.47225 19.2329 5.60929 19.0324 4.98465 18.6856ZM17.975 11.1856C17.3301 10.8276 16.7502 10.2279 16.33 9.50004C15.9098 8.7722 15.6804 7.97017 15.6928 7.23262C15.7048 6.51827 15.9626 5.67069 16.7451 5.21895C17.5275 4.76721 18.3905 4.9677 19.0151 5.31446C19.66 5.6725 20.2399 6.2722 20.6601 7.00004C21.0803 7.72788 21.3098 8.52991 21.2974 9.26746C21.2853 9.9818 21.0275 10.8294 20.2451 11.2811C19.4626 11.7329 18.5997 11.5324 17.975 11.1856Z" fill="#10161F"/>
</svg>
