<svg width="24" height="24" viewBox="0 0 24 24" fill="none" xmlns="http://www.w3.org/2000/svg">
<path d="M9.79492 17H5C3.34315 17 2 15.6569 2 14V7C2 5.34315 3.34315 4 5 4H19C20.6569 4 22 5.34315 22 7V14C22 15.6569 20.6569 17 19 17H15.8594C15.8551 16.9764 15.8484 16.9532 15.8438 16.9297C16.0733 18.095 15.8054 19.3441 15.0146 20.333L14.7822 20.625C14.4373 21.0559 13.8072 21.1257 13.376 20.7812C12.9448 20.4363 12.8749 19.8063 13.2197 19.375L13.4531 19.084C13.9363 18.4795 14.0432 17.6877 13.7949 17H11.8594C11.8551 16.9764 11.8484 16.9532 11.8438 16.9297C12.0733 18.095 11.8054 19.3441 11.0146 20.333L10.7822 20.625C10.4373 21.0559 9.80716 21.1257 9.37598 20.7812C8.94477 20.4363 8.87488 19.8063 9.21973 19.375L9.45312 19.084C9.93633 18.4795 10.0432 17.6877 9.79492 17ZM9.69434 16.7646C9.66674 16.7097 9.63604 16.6563 9.60352 16.6035C9.63593 16.6564 9.66683 16.7097 9.69434 16.7646ZM13.6943 16.7646C13.6667 16.7097 13.636 16.6563 13.6035 16.6035C13.6359 16.6564 13.6668 16.7097 13.6943 16.7646ZM9.4502 16.3838C9.4014 16.323 9.35017 16.2633 9.29395 16.207C9.22689 16.14 9.16313 16.0705 9.10156 16H11.5439C11.3432 15.562 11.0655 15.1515 10.707 14.793C9.92906 14.0147 9.8605 12.7754 10.5479 11.916L10.7812 11.625C11.126 11.1938 11.0559 10.5638 10.625 10.2188C10.1938 9.87407 9.56372 9.94404 9.21875 10.375L8.98633 10.667C7.6624 12.3221 7.7944 14.7082 9.29297 16.207C9.34935 16.2634 9.40136 16.3228 9.4502 16.3838ZM13.4502 16.3838C13.4014 16.323 13.3502 16.2633 13.2939 16.207C13.2269 16.14 13.1631 16.0705 13.1016 16H15.5439C15.3432 15.562 15.0655 15.1515 14.707 14.793C13.9291 14.0147 13.8605 12.7754 14.5479 11.916L14.7812 11.625C15.126 11.1938 15.0559 10.5638 14.625 10.2188C14.1938 9.87407 13.5637 9.94404 13.2188 10.375L12.9863 10.667C11.6624 12.3221 11.7944 14.7082 13.293 16.207C13.3494 16.2634 13.4014 16.3228 13.4502 16.3838ZM9.58105 16.5654C9.54484 16.5092 9.50574 16.4546 9.46387 16.4014C9.50564 16.4547 9.54496 16.5092 9.58105 16.5654ZM13.5811 16.5654C13.5448 16.5092 13.5057 16.4546 13.4639 16.4014C13.5056 16.4547 13.545 16.5092 13.5811 16.5654Z" fill="#10161F"/>
</svg>
