<svg width="24" height="24" viewBox="0 0 24 24" fill="none" xmlns="http://www.w3.org/2000/svg">
<path fill-rule="evenodd" clip-rule="evenodd" d="M12.9999 2C11.8954 2 10.9999 2.89543 10.9999 4V5H9.99995C9.99995 3.89543 9.10452 3 7.99995 3H6.99995C5.89538 3 4.99995 3.89543 4.99995 5V9.00269C3.86755 9.06098 3.00063 10.0567 3.11486 11.199L3.82481 18.2985C3.97817 19.8321 5.26866 21 6.80992 21H17.19C18.7312 21 20.0217 19.8321 20.1751 18.2985L20.885 11.199C20.9993 10.0567 20.1323 9.06098 18.9999 9.00269V6C18.9999 4.89543 18.1045 4 16.9999 4H15.9999C15.9999 2.89543 15.1045 2 13.9999 2H12.9999ZM9.99995 7V11.4651C10.3095 11.6441 10.6453 11.7828 10.9999 11.8741V7H9.99995ZM12.9999 11.8741C13.3546 11.7828 13.6904 11.6441 13.9999 11.4651V4L12.9999 4V11.8741ZM7.99995 9.42504V5H6.99995V9.01407C7.38205 9.05955 7.72038 9.21214 7.99995 9.42504ZM16.9999 6V9.01406C16.6178 9.05953 16.2795 9.21211 15.9999 9.42501V6H16.9999Z" fill="#10161F"/>
</svg>
