<svg width="24" height="24" viewBox="0 0 24 24" fill="none" xmlns="http://www.w3.org/2000/svg">
<path d="M16.4063 2.48748C16.887 3.07671 16.8531 3.94612 16.3041 4.49555L11.1824 9.61724C10.9873 9.81249 10.9872 10.1291 11.1824 10.3243C11.3776 10.5193 11.6943 10.5194 11.8895 10.3243L14.1827 8.03108C14.7685 7.44533 15.7183 7.44538 16.3041 8.03108L16.4069 8.14502C16.8873 8.73417 16.8532 9.6033 16.3041 10.1524L14.7179 11.7386C14.5228 11.9338 14.5228 12.2505 14.7179 12.4457C14.9131 12.6406 15.2298 12.6407 15.425 12.4457L16.4808 11.3898C16.969 10.9017 17.7604 10.9018 18.2486 11.3898L18.3342 11.4851C18.7343 11.9761 18.7061 12.7001 18.2486 13.1576L17.1928 14.2134C16.9977 14.4087 16.9976 14.7253 17.1928 14.9205L17.2715 14.9841C17.4655 15.112 17.7291 15.0912 17.8999 14.9205L18.2486 14.5718C18.7365 14.0839 19.5277 14.0834 20.0157 14.5711L20.1013 14.6664C20.5016 15.1572 20.4731 15.8814 20.0157 16.3389L16.6569 19.6977C13.9233 22.4313 9.49111 22.4311 6.75742 19.6977C4.03328 16.9734 4.02443 12.563 6.7298 9.82716L14.182 2.37354C14.768 1.78797 15.7175 1.78787 16.3034 2.37354L16.4063 2.48748Z" fill="#10161F"/>
<path d="M9.07002 4.05223C9.38502 4.36782 9.67416 4.75693 9.9394 5.20335L6.45221 8.69054L5.17955 5.24685C4.96842 4.67473 5.10574 3.87409 5.80587 3.48115L6.01441 3.37481C6.50629 3.14749 7.03492 3.07203 7.56949 3.18422C8.16033 3.30832 8.65975 3.64125 9.07002 4.05223Z" fill="#10161F"/>
</svg>
